<?xml version="1.0" encoding="UTF-8"?>
<svg id="Capa_1" xmlns="http://www.w3.org/2000/svg" version="1.1" viewBox="0 0 48 48">
  <!-- Generator: Adobe Illustrator 30.3.0, SVG Export Plug-In . SVG Version: 2.1.3 Build 182)  -->
  <defs>
    <style>
      .st0 {
        fill: #fff;
      }
    </style>
  </defs>
  <g>
    <path d="M9.8,13.2v-.4c.1-.3.3-.5.6-.7,2.2-1.2,4.4-2.5,6.9-3.1.8-3.2,3.7-5.4,7-5.4s6.2,2.2,7,5.4c2.6.7,4.9,2,7.2,3.3.2.2.3.4.3.7,0,.3,0,.6-.3.7-1.7,1-3.4,1.7-5.3,2.3-1.8,1.9-4.2,3.1-6.8,3.7-1.7.3-3.3.3-4.9-.2-2.3-.6-4.4-1.8-6.1-3.5-1.8-.5-3.4-1.2-5-2.1s-.5-.4-.6-.7ZM29.5,9.3c-.7-2.3-2.8-3.9-5.2-3.9s-4.5,1.5-5.2,3.9c3.6.9,6.8.9,10.4,0ZM30.9,10.8c-3.5.9-6.6,1.3-10.2.7s-2-.4-3-.7c-1.8.5-3.5,1.3-5.1,2.2,2.4,1.1,4.8,1.8,7.4,2.1s5.6.3,8.5,0c2.6-.3,5.1-1,7.6-2.2-1.6-.9-3.3-1.7-5.1-2.2ZM28.9,16.9c-3.1.3-6.1.3-9.1,0,3,1.5,6.2,1.5,9.1,0Z"/>
    <path d="M18.8,11.8c.5,0,.9.4,1,.8s-.3,1-.8,1-.9-.3-1-.8.3-1,.8-1Z"/>
    <path d="M29.6,11.8c.5,0,.9.3,1,.8s-.3.9-.7,1-1-.3-1-.7.3-1,.8-1.1Z"/>
    <path d="M24.2,12.7c.5,0,.9.3,1,.8s-.3,1-.8,1-.9-.3-1-.8.3-.9.8-1Z"/>
  </g>
  <path d="M32.1,19.4c-1.6,1.2-3.4,2-5.4,2.4-1.7.3-3.3.3-4.9-.2-1.9-.5-3.6-1.4-5.1-2.6h0l-9.1,26.3h33.5l-9-26Z"/>
  <g>
    <path class="st0" d="M13.2,40.3c-.5,0-.1.7-.4,1.4-.3-.2-.5-.3-.8-.6.1-.5.3-1,.3-1.5s0-.9-.1-1.4c0-1,.5-2.1-.1-3.4.7.2,1.4.5,1.4,1.1s.1.3.3.3.3,0,.4-.2c.2-.5.3-.9.6-1.3s.5-.4.7-.5c.5-.2,1.2.3,2,.1s1.3-.8,1.4-1.6-.2-1.4-.7-1.9-.6-.3-.9-.5c.9-1,2.3-1,3.6-1h3.8c-1.2,1.5-.7,3.2.6,4.3.4.3.8.2,1.1-.1.7-.9.7-2.2,1.8-2.3s.9-.4.9-.9-.1-.7-.3-1.1c1.2-.1,2.7-.3,3,1s.2,1.1,0,1.7c-.1,1.2-.3,2.3-.7,3.4s-.6,1.6-1.1,2.4c-.7,1.2-1.2,2.4-1.4,3.8h-1.2s1-3,1-3c0-.2,0-.4,0-.6l-.6-1.2c-.4-.8-.2-1.3-.6-1.3s-.1.6-.8.9c-1,.4-2.4.3-3.6.1s-.4,0-.4.3v4.8s-1.1,0-1.1,0c0-1.3-.2-2.5-.4-3.8s-.2-.8-.3-1.1-.5-.5-.9-.3c-1,.4-1.4-.2-1.7.2-1.1,1.4-2.2,2.8-3.3,4.1s-.7.7-1.1,1c0-.6.2-1.4-.3-1.4ZM13.2,37.5c-.2,0-.3.3-.2.5s.3.3.4.2.3-.3.2-.5-.3-.3-.5-.2Z"/>
    <path class="st0" d="M35.6,38.2c0-.8-.4-1.4-1-1.8s-.2-.8-.4-1.2-.3-.9-.4-1.5,0-1.4-.2-2.1-.6-1.1-1.3-1.1l-.2-.6c.6,0,1.1,0,1.6.5.7.7.6,1.9.7,2.9v1.1c1.2.2,2,1.1,2.1,2.2s0,1.2-.3,1.9-.2.2-.3.2c-.2,0-.3-.2-.3-.4ZM35.9,36.8c0-.7-.3-1.4-1-1.7v.7c.4.3.7.5,1,1Z"/>
    <path class="st0" d="M26.8,31.2c-.5.6-.6,1.3-1.1,2-.4-.3-.7-.7-.9-1.1-.5-1-.2-2,.7-2.7h2.4c.2.2.5.8.3,1s-.9,0-1.4.8Z"/>
    <path class="st0" d="M32.8,41.6c0-.5,0-1-.3-1.6-.3-1-.9-1.8-1.6-2.6.3-.7.6-1.3.8-2.1.3.8.7,1.4,1.3,2l.6,4.2h-.9Z"/>
    <path class="st0" d="M19.5,41.6h-.6s-.1-4.5-.1-4.5c.4,0,.8,0,1.2-.2.2.5.4,1.1.3,1.6,0,1.1-.4,2-.8,3.1Z"/>
    <path class="st0" d="M17.2,33.7c-.5.1-1.2-.3-2-.2l.7-1.4c.2-.5.6-.9.9-1.3.7.2,1.1.4,1.3,1.2.2.7-.1,1.5-.9,1.6Z"/>
    <path class="st0" d="M27.8,38.4c-.9.2-1.6-.4-1.9-1.2.4-.1.8-.3,1.1-.5l.8,1.7Z"/>
    <path class="st0" d="M26.6,39.8c0,.1-.2.2-.3.2s-.2-.2-.2-.3v-.7c.2-.1.3-.2.5-.2s.3.2.2.3l-.2.7Z"/>
    <path class="st0" d="M25,38.8c-.1,0-.3,0-.4,0s0-.3,0-.4l.6-.4c.1,0,.3,0,.4,0s0,.3-.1.4l-.6.4Z"/>
    <polygon class="st0" points="20.7 41.6 20.2 41.6 20.5 40.6 20.7 41.6"/>
  </g>
</svg>